<svg width="88" height="88" viewBox="0 0 88 88" fill="none" xmlns="http://www.w3.org/2000/svg">
<g id="Group">
<path id="Vector" d="M11.3145 10.9238L22.1893 10.9729L22.1403 21.8478L11.2654 21.7987L11.3145 10.9238Z" fill="#373535"/>
<path id="Vector_2" d="M33.1129 0.147254L32.9657 32.7719L0.341027 32.6247L0.488281 0L33.1129 0.147254ZM27.651 5.56016L5.90118 5.46199L5.80301 27.2118L27.5528 27.3099L27.651 5.56016ZM21.9436 65.3475L11.0687 65.2984L11.0196 76.1733L21.8945 76.2224L21.9436 65.3475Z" fill="#373535"/>
<path id="Vector_3" d="M32.8678 54.5218L32.7205 87.1465L0.0958602 86.9992L0.243114 54.3746L32.8678 54.5218ZM5.65602 59.8365L5.55785 81.5863L27.3076 81.6845L27.4058 59.9347L5.65602 59.8365ZM65.6888 11.1695L76.5637 11.2186L76.5146 22.0935L65.6397 22.0444L65.6888 11.1695Z" fill="#373535"/>
<path id="Vector_4" d="M54.8627 0.245424L54.7155 32.8701L87.3401 33.0173L87.4874 0.392678L54.8627 0.245424ZM82.0254 5.80558L81.9272 27.5554L60.1775 27.4572L60.2756 5.70741L82.0254 5.80558ZM43.9633 5.63378L43.9878 0.196339L49.4253 0.220881L49.3762 11.0958L43.9388 11.0712L43.8897 21.9461L38.4522 21.9216L38.5259 5.60924L43.9633 5.63378ZM43.8406 32.821L43.8897 21.9461L49.3271 21.9707L49.278 32.8455L43.8406 32.821ZM32.9166 43.6468L32.9412 38.2094L38.3786 38.2339L38.4031 32.7965L43.8406 32.821L43.7915 43.6959L49.2289 43.7204L49.2535 38.283L76.4407 38.4057L76.4162 43.8431L54.6664 43.745L54.6418 49.1824L38.3295 49.1088L38.3541 43.6714L32.9166 43.6468ZM32.9166 43.6468L32.8921 49.0843L11.1423 48.9861L11.1668 43.5486L5.72939 43.5241L5.70484 48.9615L0.2674 48.937L0.316485 38.0621L16.6288 38.1357L16.6043 43.5732L32.9166 43.6468ZM87.2665 49.3297L81.8291 49.3051L81.8782 38.4302L87.3156 38.4548L87.2665 49.3297ZM81.8291 49.3051L76.3916 49.2806L76.3425 60.1555L87.2174 60.2046L87.242 54.7671L81.8045 54.7426L81.8291 49.3051ZM60.0793 49.207L70.9542 49.2561L70.9296 54.6935L65.4922 54.669L65.4677 60.1064L60.0302 60.0819L60.0793 49.207ZM70.8806 65.5684L70.9051 60.1309L65.4677 60.1064L65.4431 65.5438L60.0057 65.5193L59.9811 70.9567L49.1062 70.9077L49.0817 76.3451L65.394 76.4187L65.4431 65.5438L70.8806 65.5684ZM70.8806 65.5684L87.1929 65.642L87.1683 71.0795L76.2935 71.0304L76.2689 76.4678L70.8315 76.4433L70.8806 65.5684ZM49.1553 60.0328L49.1308 65.4702L54.5682 65.4948L54.6173 54.6199L38.305 54.5462L38.2804 59.9837L49.1553 60.0328Z" fill="#373535"/>
<path id="Vector_5" d="M38.2559 65.4209L43.6933 65.4454L43.6197 81.7578L65.3695 81.8559L65.3449 87.2934L38.1577 87.1707L38.2559 65.4209ZM87.1438 76.5167L87.0947 87.3916L70.7824 87.3179L70.8069 81.8805L81.6818 81.9296L81.7063 76.4921L87.1438 76.5167Z" fill="#373535"/>
</g>
</svg>
